<svg width="48" height="36" viewBox="0 0 48 36" fill="none" xmlns="http://www.w3.org/2000/svg">
<path d="M31.219 32.6092C31.0558 32.6092 30.9335 32.672 30.8519 32.7767C30.7704 32.8814 30.7092 33.0279 30.7296 33.1954C30.7296 33.4047 30.8112 33.5722 30.9335 33.6978C31.0151 33.7606 31.1782 33.8653 31.4229 33.9909C31.7287 34.1374 31.9327 34.284 32.055 34.4514C32.1773 34.598 32.2589 34.7864 32.2589 34.9748C32.2589 35.2469 32.157 35.4981 31.953 35.6866C31.7491 35.875 31.5044 35.9796 31.219 36.0006C31.219 35.9378 31.219 35.9378 31.2394 35.8959C31.4229 35.8959 31.586 35.8331 31.688 35.7284C31.7899 35.6237 31.8511 35.4563 31.8307 35.2469C31.8307 35.0585 31.7695 34.912 31.6676 34.7864C31.5656 34.6608 31.3821 34.5352 31.1374 34.4096C30.8316 34.263 30.6276 34.1165 30.5053 33.9909C30.3829 33.8444 30.3218 33.6769 30.3218 33.4675C30.3218 33.1954 30.4033 32.9861 30.5665 32.7977C30.7296 32.6302 30.9335 32.5255 31.1986 32.5255" fill="#7CB0C5"/>
<path d="M35.4401 35.8541C35.1343 35.8332 34.5225 35.8332 33.6049 35.8541C33.503 35.8541 33.4214 35.8541 33.2991 35.8541V35.4983L33.2583 32.7559V32.4838H33.7885C33.8089 32.4838 33.9924 32.4838 34.3186 32.4838C34.6449 32.4838 34.8692 32.4838 34.9711 32.4628C35.0731 32.4628 35.1547 32.4628 35.2362 32.4419L34.8896 32.6722C34.7876 32.6094 34.5225 32.5884 34.0943 32.5884H33.7069L33.7273 34.0119L34.5429 33.991V34.0957L33.7273 34.1166L33.7477 35.7495C34.441 35.7285 34.8488 35.7076 34.9711 35.6867L35.4401 35.8541Z" fill="#7CB0C5"/>
<path d="M38.4169 35.8327C38.3149 35.8327 38.0906 35.8327 37.9887 35.8327C37.8459 35.8327 37.9683 35.8327 37.7848 35.8327C37.7848 35.8327 37.6624 35.4977 37.5809 35.3302L37.0711 34.2835L36.4798 35.3093C36.3778 35.4977 36.2555 35.8327 36.2555 35.8327H35.9292L36.0923 35.6442C36.1535 35.5814 36.337 35.2674 36.6837 34.6813C36.806 34.4719 36.908 34.2835 37.0099 34.1161L36.4798 33.0694C36.3778 32.86 36.2962 32.7135 36.2555 32.6507L36.1331 32.4204C36.2351 32.4204 36.4594 32.4413 36.5001 32.4413C36.6021 32.4413 36.6837 32.4413 36.7448 32.4413C36.7448 32.4413 36.9691 33.0275 37.3362 33.7393C37.4585 33.5508 37.6013 33.3206 37.7644 33.0484C37.9275 32.7763 38.0499 32.4413 38.0499 32.4413C38.0702 32.4413 38.1314 32.4413 38.2742 32.4413C38.2742 32.4413 38.0906 32.7135 37.9887 32.9019C37.8663 33.1322 37.6828 33.4252 37.4585 33.8021L37.3973 33.8858C37.4177 33.9277 37.642 34.3463 38.0295 35.1628C38.1314 35.4558 38.4169 35.8327 38.4169 35.8327Z" fill="#7CB0C5"/>
<path d="M40.3747 35.8333H40.0485C40.0077 35.8333 39.9669 35.8333 39.9261 35.8333V35.4774V34.4516C39.8854 34.3888 39.8038 34.2004 39.6611 33.8864L39.1921 32.9234C39.1513 32.8397 39.0901 32.7141 39.0289 32.6094L38.9678 32.4838C39.0901 32.4838 39.3144 32.4838 39.3552 32.4838H39.5591L40.3544 34.1795C40.4359 34.0329 40.5175 33.8445 40.6194 33.6352L40.9049 33.049C41.0069 32.8397 41.17 32.4629 41.17 32.4629C41.2312 32.4629 41.2719 32.4629 41.3331 32.4629C41.3331 32.4629 41.0884 32.9653 40.8437 33.4677C40.7418 33.698 40.6398 33.9073 40.5583 34.0748C40.4971 34.2004 40.4563 34.2842 40.4563 34.326C40.4563 34.3679 40.4359 34.4726 40.4359 34.6191V35.5402L40.3747 35.8333Z" fill="#7CB0C5"/>
<path d="M1.99831 35.8953C1.95753 35.8535 1.38658 35.1417 0.489382 34.1159V35.8953C0.407818 35.8953 0.163127 35.8953 0 35.8953V32.4203H0.489382V34.0322L0.8972 33.6135C1.52932 32.9855 2.05948 32.3994 2.05948 32.3784C2.14104 32.3994 2.12065 32.3994 2.22261 32.4203C2.0187 32.6506 0.836027 33.8647 0.836027 33.8647C0.856418 33.8857 0.937981 33.9694 1.08072 34.1369C1.3458 34.43 2.07987 35.2673 2.58964 35.8953" fill="#7CB0C5"/>
<path d="M8.3194 35.9158C7.99315 35.8948 7.36103 35.8948 6.42305 35.8948C6.30071 35.8948 6.21914 35.8948 6.11719 35.8948V35.518V32.6919V32.3989H6.66774C6.68813 32.3989 6.87165 32.3989 7.2183 32.3989C7.56494 32.3989 7.78924 32.3989 7.91159 32.3989C8.01354 32.3989 8.09511 32.3989 8.17667 32.3779L7.80963 32.6082C7.70768 32.5454 7.42221 32.5245 6.994 32.5245H6.58618V34.0108H7.4426V34.1155H6.60657V35.8111C7.32025 35.8111 7.74846 35.7902 7.87081 35.7692L8.3194 35.9158Z" fill="#7CB0C5"/>
<path d="M5.46497 35.9168C5.13872 35.8958 4.5066 35.8958 3.56862 35.8958C3.44627 35.8958 3.36471 35.8958 3.26276 35.8958V35.519V32.6929V32.3998H3.81331C3.8337 32.3998 4.01722 32.3998 4.36387 32.3998C4.71051 32.3998 4.93481 32.3998 5.05716 32.3998C5.15911 32.3998 5.24067 32.3998 5.32224 32.3789L4.9552 32.6092C4.85325 32.5464 4.56777 32.5254 4.13956 32.5254H3.73175V34.0118H4.58817V34.1164H3.75214V35.8121C4.46582 35.8121 4.89403 35.7912 5.01637 35.7702L5.46497 35.9168Z" fill="#7CB0C5"/>
<path d="M8.95191 35.6646V32.692V32.3989H9.74716C10.1142 32.3989 10.3997 32.4617 10.5628 32.6083C10.7667 32.7548 10.8483 32.9641 10.8483 33.2572C10.8483 33.5922 10.7055 33.8434 10.4405 34.0108C10.2773 34.1155 10.053 34.1783 9.78794 34.1783C9.68599 34.1783 9.54325 34.1574 9.40051 34.1364V35.56V35.8949C9.25778 35.8949 9.11504 35.8949 8.91113 35.8949L8.95191 35.6646ZM10.3589 33.2363C10.3589 32.7339 10.155 32.4827 9.74716 32.4827C9.60442 32.4827 9.52286 32.5036 9.48208 32.5455C9.46169 32.5664 9.46169 32.6083 9.46169 32.692V34.0318C9.48208 34.0318 9.52286 34.0318 9.54325 34.0318C9.76755 34.0318 9.95107 33.9899 10.0938 33.8852C10.2569 33.7806 10.3589 33.5503 10.3589 33.2363Z" fill="#7CB0C5"/>
<path d="M17.7603 32.714V34.5562C17.7603 35.0377 17.6583 35.3936 17.4748 35.6029C17.2913 35.8123 16.9854 35.9379 16.5572 35.9379C16.0474 35.9379 15.7008 35.8123 15.4969 35.5401C15.3541 35.3517 15.293 35.0586 15.293 34.64V32.6722V32.4628H15.8231V32.6512C15.8231 32.6722 15.8231 32.7559 15.8231 32.9234V34.6818C15.8231 35.1214 15.9047 35.4145 16.0474 35.5611C16.1902 35.7285 16.4145 35.7913 16.6999 35.7913C17.2301 35.7913 17.536 35.4983 17.5971 34.933C17.6175 34.8493 17.6175 34.4934 17.6175 33.8445V33.5723V33.1746V32.8396C17.6175 32.7978 17.6175 32.7768 17.6175 32.735C17.6175 32.6931 17.6175 32.6722 17.6175 32.6722V32.4419C17.6583 32.4419 17.7195 32.4419 17.7807 32.4419L17.7603 32.714Z" fill="#7CB0C5"/>
<path d="M22.756 32.5469C22.654 32.5259 22.5521 32.5259 22.4909 32.5259C22.3278 32.5259 22.2258 32.5259 22.185 32.5259V35.4986V35.8126C22.1239 35.8126 22.0831 35.8126 22.0423 35.8126C21.92 35.8126 21.818 35.8126 21.7161 35.8126C21.6957 35.8126 21.6957 35.8126 21.6753 35.8126V35.4567V32.505C21.3286 32.505 21.1247 32.5259 21.0228 32.5469L20.5538 32.3794H20.7985L21.8588 32.4003C21.9811 32.4003 22.185 32.4003 22.4501 32.4003L23.3269 32.3794L22.756 32.5469Z" fill="#7CB0C5"/>
<path d="M24.0406 35.4145V32.8186V32.4209H24.3866C24.4273 32.4209 24.468 32.4209 24.5494 32.4209V32.7558V35.3935V35.8331C24.4476 35.8331 24.3052 35.8331 24.1627 35.8331C24.122 35.8331 24.0813 35.8331 24.0406 35.8331V35.4145Z" fill="#7CB0C5"/>
<path d="M27.8947 32.4004C27.9558 32.4004 27.9558 32.4004 27.9558 32.4004C27.9558 32.4004 27.9762 32.4004 28.0374 32.4004V32.6935V35.5196C28.0374 35.687 28.0374 35.7917 28.0374 35.8336C28.0374 35.8545 28.017 35.8754 27.9966 35.8754C27.9762 35.8754 27.9558 35.8545 27.9151 35.8126L27.2422 34.8915C26.8547 34.3473 26.3857 33.6774 25.8352 32.8819V35.6452V35.8126H25.6924V35.4986V33.0703V32.4213C25.8148 32.4213 25.9779 32.4213 26.0799 32.4004L27.8743 34.9334V32.7353L27.8947 32.4004Z" fill="#7CB0C5"/>
<path d="M19.4528 32.4426C19.2693 32.4426 19.147 32.5054 19.045 32.61C18.9431 32.7147 18.8819 32.8612 18.8819 33.0496C18.8819 33.259 18.9634 33.4265 19.1062 33.5521C19.1877 33.6149 19.3713 33.7195 19.6567 33.8661C19.983 34.0126 20.2277 34.1801 20.3704 34.3476C20.5132 34.515 20.5947 34.6825 20.5947 34.8918C20.5947 35.1849 20.4724 35.4152 20.2481 35.6245C20.0238 35.8339 19.7383 35.9176 19.412 35.9176C19.4324 35.8548 19.4324 35.8548 19.4324 35.8129C19.6363 35.8129 19.8199 35.7501 19.9218 35.6455C20.0442 35.5408 20.1053 35.3733 20.1053 35.164C20.1053 34.9756 20.0442 34.829 19.9422 34.6825C19.8199 34.5569 19.6363 34.4313 19.3509 34.2848C19.0246 34.1382 18.7799 33.9707 18.6576 33.8242C18.5352 33.6777 18.4537 33.4893 18.4537 33.2799C18.4537 33.0078 18.5556 32.7775 18.7391 32.61C18.9227 32.4216 19.1674 32.3379 19.4528 32.3379" fill="#7CB0C5"/>
<path d="M14.7222 35.9164L14.3348 35.8955H14.1513L14.0289 35.4768C14.0085 35.3721 13.927 35.1418 13.8046 34.8069H12.7647C12.5608 35.3302 12.3976 35.8955 12.3976 35.8955C12.3569 35.8955 12.2141 35.8955 12.153 35.8955C12.153 35.8955 12.2753 35.707 12.2957 35.6233C12.7239 34.4091 13.0502 33.4462 13.3152 32.6925C13.3152 32.6507 13.3356 32.6088 13.356 32.5669L13.3764 32.4832C13.3764 32.4413 13.3968 32.4204 13.4172 32.4204C13.4172 32.4204 13.4376 32.4204 13.4376 32.4413C13.4784 32.5669 13.5803 32.8391 13.7231 33.2368C13.8454 33.5508 14.1309 34.3463 14.5999 35.6442L14.7222 35.9164ZM13.7842 34.7232C13.7231 34.5766 13.6415 34.3254 13.5191 33.9905L13.2745 33.2996C13.1317 33.6555 12.9686 34.137 12.7851 34.7232H13.7842Z" fill="#7CB0C5"/>
<path d="M13.6615 29.8724C13.3761 29.5584 9.44062 24.6599 3.36413 17.5214V29.8724C2.73201 29.8724 1.12113 29.8724 0.0200195 29.8724V5.67271L3.36413 5.65178V16.8933L6.19846 13.9835C10.5009 9.54551 14.1305 5.46337 14.2325 5.33777C14.7219 5.48431 14.6811 5.46337 15.2928 5.67271C13.8451 7.24276 5.79065 15.7629 5.79065 15.7629C5.93338 15.9304 6.48394 16.5375 7.4627 17.626C9.33866 19.6148 14.2733 25.4763 17.7805 29.8724" fill="#7CB0C5"/>
<path d="M34.2362 6.36404C33.1147 6.36404 32.2378 6.74085 31.5853 7.45261C30.9328 8.1853 30.6066 9.19013 30.6066 10.4462C30.6066 11.9116 31.096 13.0839 32.0543 13.984C32.5845 14.4864 33.7468 15.1982 35.5412 16.1193C37.6414 17.1869 39.1504 18.2964 40.0476 19.4059C40.9652 20.5154 41.4138 21.7715 41.4138 23.195C41.4138 25.1628 40.6797 26.8375 39.2319 28.2192C37.7638 29.6008 36.0102 30.2916 33.9711 30.2916C34.0322 29.9148 34.0323 29.9148 34.1138 29.6008C35.48 29.6008 36.5199 29.2031 37.2744 28.4076C38.0289 27.6121 38.3959 26.5026 38.3959 25.0581C38.3959 23.7811 38.0289 22.6926 37.3152 21.7715C36.5811 20.8713 35.3373 19.9712 33.5836 19.071C31.463 18.0034 29.9949 16.9567 29.1588 15.9518C28.3432 14.947 27.915 13.6909 27.915 12.2046C27.915 10.2996 28.5063 8.72958 29.7094 7.49448C30.8921 6.25937 32.4214 5.63135 34.2362 5.63135" fill="#7CB0C5"/>
<path fill-rule="evenodd" clip-rule="evenodd" d="M21.3904 0.376813C21.3904 0.376813 15.6809 17.2496 13.6826 23.1321H24.1471L22.5387 22.4032L15.0284 22.3575C16.3334 18.3173 19.6164 8.52014 20.5544 5.98713C20.5544 5.98713 24.9996 21.3946 25.3666 22.4203L25.3536 22.4203L25.5942 23.1321H29.7914C27.6589 17.1776 26.0601 12.4492 24.9953 9.2998C24.4616 7.72138 24.062 6.53955 23.7965 5.79872C22.7566 2.97263 22.1041 1.1095 21.8186 0.20934C21.7778 0.0628021 21.7166 0 21.6555 0C21.5535 0 21.4515 0.125605 21.3904 0.376813Z" fill="#7CB0C5"/>
<path d="M40.3945 11.9745C40.1906 11.9745 39.6605 11.9955 39.477 11.9955V11.3256V5.58965C38.8652 5.58965 38.4778 5.63152 38.3351 5.69432L37.9272 5.35938L39.8236 5.38031C40.0479 5.38031 40.3945 5.38031 40.8635 5.38031L42.4132 5.35938L41.3937 5.61059C41.2102 5.56872 41.0471 5.54778 40.9247 5.56872C40.6392 5.56872 40.4557 5.58965 40.3945 5.58965V11.3465V11.9745Z" fill="#7CB0C5"/>
<path d="M47.9595 6.84557V11.3045C47.9595 11.5557 47.9595 11.9953 47.9595 11.9953C47.776 11.9953 47.2866 11.9953 47.0419 11.9953C47.0419 11.9953 47.0623 11.472 47.0623 11.0742V6.11288C47.0623 6.11288 47.0215 6.23848 46.94 6.44782C46.6953 7.22238 46.3282 8.37375 45.8593 9.92287L45.4311 11.4511C45.3495 11.7441 45.2883 11.8907 45.2475 11.8907C45.2068 11.8907 45.166 11.8069 45.1048 11.6604C44.9213 11.0742 44.4115 9.62979 43.5755 7.30611L43.2084 6.28035C43.2084 6.40595 43.2084 6.57342 43.2084 6.78276V9.90194L43.2288 11.9744H42.9434V11.2208V6.63623C42.9434 6.11288 42.9638 5.31738 42.9638 5.31738C43.3308 5.31738 43.657 5.31738 43.8202 5.31738C43.8406 5.40112 44.0241 5.90353 44.3707 6.82463C44.5135 7.20144 44.9009 8.33188 45.5738 10.1741C45.6961 9.75539 45.8185 9.35765 45.9408 8.93897L46.94 5.77793C47.0012 5.58952 47.0623 5.44299 47.1031 5.31738H48.0003L47.9595 6.84557Z" fill="#7CB0C5"/>
</svg>
