<svg width="16" height="16" viewBox="0 0 16 16" fill="none" xmlns="http://www.w3.org/2000/svg">
<path d="M0.666504 1.6665H1.32075C1.79914 1.6665 2.03833 1.6665 2.23279 1.75324C2.40421 1.82971 2.55065 1.95288 2.65536 2.10867C2.77414 2.28539 2.81512 2.52104 2.89709 2.99236L3.0723 3.99984M3.0723 3.99984L3.49157 6.4106C3.67074 7.44088 3.76033 7.95602 4.02566 8.32712C4.25929 8.65387 4.5859 8.90271 4.96295 9.04122C5.39116 9.19853 5.9116 9.14816 6.95248 9.04743L12.4092 8.51936C12.5185 8.50878 12.5732 8.50349 12.6203 8.49666C13.5681 8.35918 14.2854 7.56911 14.3309 6.6125C14.3332 6.56497 14.3332 6.51003 14.3332 6.40017V6.40017C14.3332 6.28345 14.3332 6.22509 14.3307 6.17541C14.2807 5.1716 13.4936 4.36078 12.4917 4.28113C12.4421 4.27719 12.3837 4.27547 12.2671 4.27201L3.0723 3.99984Z" stroke="#111111" stroke-linecap="round" stroke-linejoin="round"/>
<ellipse cx="5.66683" cy="12.6668" rx="1.33333" ry="1.33333" stroke="#111111"/>
<ellipse cx="11.9998" cy="12.6668" rx="1.33333" ry="1.33333" stroke="#111111"/>
</svg>
