<svg width="32" height="32" viewBox="0 0 32 32" fill="none" xmlns="http://www.w3.org/2000/svg">
<path d="M11.2069 6.27262H20.7932C20.7933 6.27262 20.7935 6.27262 20.7936 6.27262C23.5187 6.27286 25.7274 8.48149 25.7274 11.2064V20.7927C25.7274 23.5179 23.5183 25.727 20.7932 25.727H11.2074C8.48213 25.727 6.27311 23.5182 6.27311 20.7931V11.2064C6.27311 8.48168 8.48179 6.27262 11.2069 6.27262Z" stroke="#6F92A5" stroke-width="1.33333"/>
<path d="M18.6024 16.7498L18.9356 14.5781H16.8519V13.1689C16.8519 12.5748 17.143 11.9956 18.0762 11.9956H19.0235V10.1467C19.0235 10.1467 18.1639 10 17.3419 10C15.6259 10 14.5042 11.0401 14.5042 12.923V14.5781H12.5967V16.7498H14.5042V21.9996H16.8519V16.7498H18.6024Z" fill="#6F92A5"/>
</svg>
