<svg width="32" height="32" viewBox="0 0 32 32" fill="none" xmlns="http://www.w3.org/2000/svg">
<path d="M20.7941 5.60596H11.2074C8.11406 5.60596 5.60693 8.11353 5.60693 11.2064V20.7931C5.60693 23.8865 8.1145 26.3936 11.2079 26.3936H20.7937C23.887 26.3936 26.3946 23.886 26.3946 20.7927V11.2064C26.3946 8.11308 23.887 5.60596 20.7937 5.60596H20.7941Z" stroke="#6F92A5" stroke-width="1.33333" stroke-miterlimit="10"/>
<path d="M15.9997 21.019C18.771 21.019 21.0175 18.7725 21.0175 16.0012C21.0175 13.2299 18.771 10.9834 15.9997 10.9834C13.2285 10.9834 10.9819 13.2299 10.9819 16.0012C10.9819 18.7725 13.2285 21.019 15.9997 21.019Z" stroke="#6F92A5" stroke-width="1.33333" stroke-miterlimit="10"/>
<path d="M22.0937 10.9823C22.6874 10.9823 23.1688 10.5009 23.1688 9.90715C23.1688 9.31338 22.6874 8.83203 22.0937 8.83203C21.4999 8.83203 21.0186 9.31338 21.0186 9.90715C21.0186 10.5009 21.4999 10.9823 22.0937 10.9823Z" fill="#6F92A5"/>
</svg>
