<svg width="24" height="24" viewBox="0 0 24 24" fill="none" xmlns="http://www.w3.org/2000/svg">
<path d="M7 11.0002L6.64645 10.6467L6.29289 11.0002L6.64645 11.3538L7 11.0002ZM10.6464 6.64669L6.64645 10.6467L7.35355 11.3538L11.3536 7.3538L10.6464 6.64669ZM6.64645 11.3538L10.6464 15.3538L11.3536 14.6467L7.35355 10.6467L6.64645 11.3538ZM7 11.5002H15V10.5002H7V11.5002ZM15 11.5002C15.5402 11.5002 16.0318 11.8136 16.4101 12.3266C16.7902 12.842 17 13.4895 17 14.0002H18C18 13.2565 17.7098 12.404 17.2149 11.733C16.7182 11.0596 15.9598 10.5002 15 10.5002V11.5002ZM17 14.0002C17 14.6453 16.7833 15.2859 16.4178 15.7558C16.0565 16.2203 15.5679 16.5002 15 16.5002V17.5002C15.9321 17.5002 16.6935 17.0302 17.2072 16.3697C17.7167 15.7146 18 14.8552 18 14.0002H17ZM15 16.5002C14.9977 16.5002 14.9953 16.5002 14.993 16.5002C14.9906 16.5002 14.9883 16.5002 14.986 16.5002C14.9837 16.5002 14.9813 16.5002 14.979 16.5002C14.9767 16.5002 14.9744 16.5002 14.9721 16.5002C14.9698 16.5002 14.9675 16.5002 14.9651 16.5002C14.9628 16.5002 14.9605 16.5002 14.9583 16.5002C14.956 16.5002 14.9537 16.5002 14.9514 16.5002C14.9491 16.5002 14.9468 16.5002 14.9445 16.5002C14.9422 16.5002 14.94 16.5002 14.9377 16.5002C14.9354 16.5002 14.9332 16.5002 14.9309 16.5002C14.9286 16.5002 14.9264 16.5002 14.9241 16.5002C14.9219 16.5002 14.9196 16.5002 14.9174 16.5002C14.9151 16.5002 14.9129 16.5002 14.9106 16.5002C14.9084 16.5002 14.9062 16.5002 14.9039 16.5002C14.9017 16.5002 14.8995 16.5002 14.8973 16.5002C14.895 16.5002 14.8928 16.5002 14.8906 16.5002C14.8884 16.5002 14.8862 16.5002 14.884 16.5002C14.8817 16.5002 14.8795 16.5002 14.8773 16.5002C14.8751 16.5002 14.8729 16.5002 14.8708 16.5002C14.8686 16.5002 14.8664 16.5002 14.8642 16.5002C14.862 16.5002 14.8598 16.5002 14.8577 16.5002C14.8555 16.5002 14.8533 16.5002 14.8511 16.5002C14.849 16.5002 14.8468 16.5002 14.8446 16.5002C14.8425 16.5002 14.8403 16.5002 14.8382 16.5002C14.836 16.5002 14.8339 16.5002 14.8317 16.5002C14.8296 16.5002 14.8274 16.5002 14.8253 16.5002C14.8232 16.5002 14.821 16.5002 14.8189 16.5002C14.8168 16.5002 14.8146 16.5002 14.8125 16.5002C14.8104 16.5002 14.8083 16.5002 14.8062 16.5002C14.804 16.5002 14.8019 16.5002 14.7998 16.5002C14.7977 16.5002 14.7956 16.5002 14.7935 16.5002C14.7914 16.5002 14.7893 16.5002 14.7872 16.5002C14.7851 16.5002 14.7831 16.5002 14.781 16.5002C14.7789 16.5002 14.7768 16.5002 14.7747 16.5002C14.7727 16.5002 14.7706 16.5002 14.7685 16.5002C14.7664 16.5002 14.7644 16.5002 14.7623 16.5002C14.7603 16.5002 14.7582 16.5002 14.7561 16.5002C14.7541 16.5002 14.752 16.5002 14.75 16.5002C14.7479 16.5002 14.7459 16.5002 14.7439 16.5002C14.7418 16.5002 14.7398 16.5002 14.7378 16.5002C14.7357 16.5002 14.7337 16.5002 14.7317 16.5002C14.7297 16.5002 14.7276 16.5002 14.7256 16.5002C14.7236 16.5002 14.7216 16.5002 14.7196 16.5002C14.7176 16.5002 14.7156 16.5002 14.7136 16.5002C14.7116 16.5002 14.7096 16.5002 14.7076 16.5002C14.7056 16.5002 14.7036 16.5002 14.7016 16.5002C14.6996 16.5002 14.6976 16.5002 14.6956 16.5002C14.6937 16.5002 14.6917 16.5002 14.6897 16.5002C14.6877 16.5002 14.6858 16.5002 14.6838 16.5002C14.6818 16.5002 14.6799 16.5002 14.6779 16.5002C14.676 16.5002 14.674 16.5002 14.6721 16.5002C14.6701 16.5002 14.6682 16.5002 14.6662 16.5002C14.6643 16.5002 14.6623 16.5002 14.6604 16.5002C14.6585 16.5002 14.6565 16.5002 14.6546 16.5002C14.6527 16.5002 14.6508 16.5002 14.6488 16.5002C14.6469 16.5002 14.645 16.5002 14.6431 16.5002C14.6412 16.5002 14.6393 16.5002 14.6374 16.5002C14.6355 16.5002 14.6336 16.5002 14.6317 16.5002C14.6298 16.5002 14.6279 16.5002 14.626 16.5002C14.6241 16.5002 14.6222 16.5002 14.6203 16.5002C14.6184 16.5002 14.6165 16.5002 14.6147 16.5002C14.6128 16.5002 14.6109 16.5002 14.609 16.5002C14.6072 16.5002 14.6053 16.5002 14.6034 16.5002C14.6016 16.5002 14.5997 16.5002 14.5979 16.5002C14.596 16.5002 14.5941 16.5002 14.5923 16.5002C14.5904 16.5002 14.5886 16.5002 14.5868 16.5002C14.5849 16.5002 14.5831 16.5002 14.5812 16.5002C14.5794 16.5002 14.5776 16.5002 14.5757 16.5002C14.5739 16.5002 14.5721 16.5002 14.5703 16.5002C14.5684 16.5002 14.5666 16.5002 14.5648 16.5002C14.563 16.5002 14.5612 16.5002 14.5594 16.5002C14.5576 16.5002 14.5558 16.5002 14.554 16.5002C14.5522 16.5002 14.5504 16.5002 14.5486 16.5002C14.5468 16.5002 14.545 16.5002 14.5432 16.5002C14.5414 16.5002 14.5396 16.5002 14.5379 16.5002C14.5361 16.5002 14.5343 16.5002 14.5325 16.5002C14.5308 16.5002 14.529 16.5002 14.5272 16.5002C14.5255 16.5002 14.5237 16.5002 14.5219 16.5002C14.5202 16.5002 14.5184 16.5002 14.5167 16.5002C14.5149 16.5002 14.5132 16.5002 14.5114 16.5002C14.5097 16.5002 14.5079 16.5002 14.5062 16.5002C14.5045 16.5002 14.5027 16.5002 14.501 16.5002C14.4993 16.5002 14.4975 16.5002 14.4958 16.5002C14.4941 16.5002 14.4924 16.5002 14.4907 16.5002C14.4889 16.5002 14.4872 16.5002 14.4855 16.5002C14.4838 16.5002 14.4821 16.5002 14.4804 16.5002C14.4787 16.5002 14.477 16.5002 14.4753 16.5002C14.4736 16.5002 14.4719 16.5002 14.4702 16.5002C14.4685 16.5002 14.4668 16.5002 14.4651 16.5002C14.4634 16.5002 14.4618 16.5002 14.4601 16.5002C14.4584 16.5002 14.4567 16.5002 14.4551 16.5002C14.4534 16.5002 14.4517 16.5002 14.4501 16.5002C14.4484 16.5002 14.4467 16.5002 14.4451 16.5002C14.4434 16.5002 14.4418 16.5002 14.4401 16.5002C14.4385 16.5002 14.4368 16.5002 14.4352 16.5002C14.4335 16.5002 14.4319 16.5002 14.4302 16.5002C14.4286 16.5002 14.427 16.5002 14.4253 16.5002C14.4237 16.5002 14.4221 16.5002 14.4205 16.5002C14.4188 16.5002 14.4172 16.5002 14.4156 16.5002C14.414 16.5002 14.4124 16.5002 14.4107 16.5002C14.4091 16.5002 14.4075 16.5002 14.4059 16.5002C14.4043 16.5002 14.4027 16.5002 14.4011 16.5002C14.3995 16.5002 14.3979 16.5002 14.3963 16.5002C14.3947 16.5002 14.3931 16.5002 14.3916 16.5002C14.39 16.5002 14.3884 16.5002 14.3868 16.5002C14.3852 16.5002 14.3837 16.5002 14.3821 16.5002C14.3805 16.5002 14.3789 16.5002 14.3774 16.5002C14.3758 16.5002 14.3742 16.5002 14.3727 16.5002C14.3711 16.5002 14.3696 16.5002 14.368 16.5002C14.3665 16.5002 14.3649 16.5002 14.3634 16.5002C14.3618 16.5002 14.3603 16.5002 14.3587 16.5002C14.3572 16.5002 14.3556 16.5002 14.3541 16.5002C14.3526 16.5002 14.351 16.5002 14.3495 16.5002C14.348 16.5002 14.3465 16.5002 14.3449 16.5002C14.3434 16.5002 14.3419 16.5002 14.3404 16.5002C14.3389 16.5002 14.3374 16.5002 14.3358 16.5002C14.3343 16.5002 14.3328 16.5002 14.3313 16.5002C14.3298 16.5002 14.3283 16.5002 14.3268 16.5002C14.3253 16.5002 14.3238 16.5002 14.3223 16.5002C14.3208 16.5002 14.3194 16.5002 14.3179 16.5002C14.3164 16.5002 14.3149 16.5002 14.3134 16.5002C14.3119 16.5002 14.3105 16.5002 14.309 16.5002C14.3075 16.5002 14.3061 16.5002 14.3046 16.5002C14.3031 16.5002 14.3017 16.5002 14.3002 16.5002C14.2987 16.5002 14.2973 16.5002 14.2958 16.5002C14.2944 16.5002 14.2929 16.5002 14.2915 16.5002C14.29 16.5002 14.2886 16.5002 14.2871 16.5002C14.2857 16.5002 14.2842 16.5002 14.2828 16.5002C14.2814 16.5002 14.2799 16.5002 14.2785 16.5002C14.2771 16.5002 14.2757 16.5002 14.2742 16.5002C14.2728 16.5002 14.2714 16.5002 14.27 16.5002C14.2685 16.5002 14.2671 16.5002 14.2657 16.5002C14.2643 16.5002 14.2629 16.5002 14.2615 16.5002C14.2601 16.5002 14.2587 16.5002 14.2573 16.5002C14.2559 16.5002 14.2545 16.5002 14.2531 16.5002C14.2517 16.5002 14.2503 16.5002 14.2489 16.5002C14.2475 16.5002 14.2461 16.5002 14.2448 16.5002C14.2434 16.5002 14.242 16.5002 14.2406 16.5002C14.2392 16.5002 14.2379 16.5002 14.2365 16.5002C14.2351 16.5002 14.2338 16.5002 14.2324 16.5002C14.231 16.5002 14.2297 16.5002 14.2283 16.5002C14.2269 16.5002 14.2256 16.5002 14.2242 16.5002C14.2229 16.5002 14.2215 16.5002 14.2202 16.5002C14.2188 16.5002 14.2175 16.5002 14.2162 16.5002C14.2148 16.5002 14.2135 16.5002 14.2121 16.5002C14.2108 16.5002 14.2095 16.5002 14.2081 16.5002C14.2068 16.5002 14.2055 16.5002 14.2042 16.5002C14.2028 16.5002 14.2015 16.5002 14.2002 16.5002C14.1989 16.5002 14.1976 16.5002 14.1962 16.5002C14.1949 16.5002 14.1936 16.5002 14.1923 16.5002C14.191 16.5002 14.1897 16.5002 14.1884 16.5002C14.1871 16.5002 14.1858 16.5002 14.1845 16.5002C14.1832 16.5002 14.1819 16.5002 14.1806 16.5002C14.1793 16.5002 14.178 16.5002 14.1768 16.5002C14.1755 16.5002 14.1742 16.5002 14.1729 16.5002C14.1716 16.5002 14.1704 16.5002 14.1691 16.5002C14.1678 16.5002 14.1665 16.5002 14.1653 16.5002C14.164 16.5002 14.1627 16.5002 14.1615 16.5002C14.1602 16.5002 14.159 16.5002 14.1577 16.5002C14.1564 16.5002 14.1552 16.5002 14.1539 16.5002C14.1527 16.5002 14.1514 16.5002 14.1502 16.5002C14.1489 16.5002 14.1477 16.5002 14.1465 16.5002C14.1452 16.5002 14.144 16.5002 14.1427 16.5002C14.1415 16.5002 14.1403 16.5002 14.139 16.5002C14.1378 16.5002 14.1366 16.5002 14.1354 16.5002C14.1341 16.5002 14.1329 16.5002 14.1317 16.5002C14.1305 16.5002 14.1293 16.5002 14.1281 16.5002C14.1268 16.5002 14.1256 16.5002 14.1244 16.5002C14.1232 16.5002 14.122 16.5002 14.1208 16.5002C14.1196 16.5002 14.1184 16.5002 14.1172 16.5002C14.116 16.5002 14.1148 16.5002 14.1136 16.5002C14.1124 16.5002 14.1112 16.5002 14.1101 16.5002C14.1089 16.5002 14.1077 16.5002 14.1065 16.5002C14.1053 16.5002 14.1041 16.5002 14.103 16.5002C14.1018 16.5002 14.1006 16.5002 14.0994 16.5002C14.0983 16.5002 14.0971 16.5002 14.0959 16.5002C14.0948 16.5002 14.0936 16.5002 14.0925 16.5002C14.0913 16.5002 14.0901 16.5002 14.089 16.5002C14.0878 16.5002 14.0867 16.5002 14.0855 16.5002C14.0844 16.5002 14.0832 16.5002 14.0821 16.5002C14.0809 16.5002 14.0798 16.5002 14.0787 16.5002C14.0775 16.5002 14.0764 16.5002 14.0753 16.5002C14.0741 16.5002 14.073 16.5002 14.0719 16.5002C14.0707 16.5002 14.0696 16.5002 14.0685 16.5002C14.0674 16.5002 14.0662 16.5002 14.0651 16.5002C14.064 16.5002 14.0629 16.5002 14.0618 16.5002C14.0607 16.5002 14.0595 16.5002 14.0584 16.5002C14.0573 16.5002 14.0562 16.5002 14.0551 16.5002C14.054 16.5002 14.0529 16.5002 14.0518 16.5002C14.0507 16.5002 14.0496 16.5002 14.0485 16.5002C14.0474 16.5002 14.0463 16.5002 14.0452 16.5002C14.0442 16.5002 14.0431 16.5002 14.042 16.5002C14.0409 16.5002 14.0398 16.5002 14.0387 16.5002C14.0377 16.5002 14.0366 16.5002 14.0355 16.5002C14.0344 16.5002 14.0334 16.5002 14.0323 16.5002C14.0312 16.5002 14.0302 16.5002 14.0291 16.5002C14.028 16.5002 14.027 16.5002 14.0259 16.5002C14.0249 16.5002 14.0238 16.5002 14.0228 16.5002C14.0217 16.5002 14.0207 16.5002 14.0196 16.5002C14.0186 16.5002 14.0175 16.5002 14.0165 16.5002C14.0154 16.5002 14.0144 16.5002 14.0133 16.5002C14.0123 16.5002 14.0113 16.5002 14.0102 16.5002C14.0092 16.5002 14.0082 16.5002 14.0071 16.5002C14.0061 16.5002 14.0051 16.5002 14.0041 16.5002C14.003 16.5002 14.002 16.5002 14.001 16.5002C14 16.5002 13.999 16.5002 13.9979 16.5002C13.9969 16.5002 13.9959 16.5002 13.9949 16.5002C13.9939 16.5002 13.9929 16.5002 13.9919 16.5002C13.9909 16.5002 13.9899 16.5002 13.9889 16.5002C13.9879 16.5002 13.9869 16.5002 13.9859 16.5002C13.9849 16.5002 13.9839 16.5002 13.9829 16.5002C13.9819 16.5002 13.9809 16.5002 13.9799 16.5002C13.9789 16.5002 13.9779 16.5002 13.977 16.5002C13.976 16.5002 13.975 16.5002 13.974 16.5002C13.973 16.5002 13.9721 16.5002 13.9711 16.5002C13.9701 16.5002 13.9692 16.5002 13.9682 16.5002C13.9672 16.5002 13.9663 16.5002 13.9653 16.5002C13.9643 16.5002 13.9634 16.5002 13.9624 16.5002C13.9614 16.5002 13.9605 16.5002 13.9595 16.5002C13.9586 16.5002 13.9576 16.5002 13.9567 16.5002C13.9557 16.5002 13.9548 16.5002 13.9538 16.5002C13.9529 16.5002 13.9519 16.5002 13.951 16.5002C13.9501 16.5002 13.9491 16.5002 13.9482 16.5002C13.9473 16.5002 13.9463 16.5002 13.9454 16.5002C13.9445 16.5002 13.9435 16.5002 13.9426 16.5002C13.9417 16.5002 13.9407 16.5002 13.9398 16.5002C13.9389 16.5002 13.938 16.5002 13.9371 16.5002C13.9361 16.5002 13.9352 16.5002 13.9343 16.5002C13.9334 16.5002 13.9325 16.5002 13.9316 16.5002C13.9307 16.5002 13.9298 16.5002 13.9288 16.5002C13.9279 16.5002 13.927 16.5002 13.9261 16.5002C13.9252 16.5002 13.9243 16.5002 13.9234 16.5002C13.9225 16.5002 13.9216 16.5002 13.9208 16.5002C13.9199 16.5002 13.919 16.5002 13.9181 16.5002C13.9172 16.5002 13.9163 16.5002 13.9154 16.5002C13.9145 16.5002 13.9137 16.5002 13.9128 16.5002C13.9119 16.5002 13.911 16.5002 13.9101 16.5002C13.9093 16.5002 13.9084 16.5002 13.9075 16.5002C13.9067 16.5002 13.9058 16.5002 13.9049 16.5002C13.9041 16.5002 13.9032 16.5002 13.9023 16.5002C13.9015 16.5002 13.9006 16.5002 13.8997 16.5002C13.8989 16.5002 13.898 16.5002 13.8972 16.5002C13.8963 16.5002 13.8955 16.5002 13.8946 16.5002C13.8938 16.5002 13.8929 16.5002 13.8921 16.5002C13.8912 16.5002 13.8904 16.5002 13.8895 16.5002C13.8887 16.5002 13.8879 16.5002 13.887 16.5002C13.8862 16.5002 13.8854 16.5002 13.8845 16.5002C13.8837 16.5002 13.8829 16.5002 13.882 16.5002C13.8812 16.5002 13.8804 16.5002 13.8795 16.5002C13.8787 16.5002 13.8779 16.5002 13.8771 16.5002C13.8762 16.5002 13.8754 16.5002 13.8746 16.5002C13.8738 16.5002 13.873 16.5002 13.8722 16.5002C13.8714 16.5002 13.8705 16.5002 13.8697 16.5002C13.8689 16.5002 13.8681 16.5002 13.8673 16.5002C13.8665 16.5002 13.8657 16.5002 13.8649 16.5002C13.8641 16.5002 13.8633 16.5002 13.8625 16.5002C13.8617 16.5002 13.8609 16.5002 13.8601 16.5002C13.8593 16.5002 13.8585 16.5002 13.8577 16.5002C13.8569 16.5002 13.8562 16.5002 13.8554 16.5002C13.8546 16.5002 13.8538 16.5002 13.853 16.5002C13.8522 16.5002 13.8515 16.5002 13.8507 16.5002C13.8499 16.5002 13.8491 16.5002 13.8484 16.5002C13.8476 16.5002 13.8468 16.5002 13.846 16.5002C13.8453 16.5002 13.8445 16.5002 13.8437 16.5002C13.843 16.5002 13.8422 16.5002 13.8414 16.5002C13.8407 16.5002 13.8399 16.5002 13.8392 16.5002C13.8384 16.5002 13.8376 16.5002 13.8369 16.5002C13.8361 16.5002 13.8354 16.5002 13.8346 16.5002C13.8339 16.5002 13.8331 16.5002 13.8324 16.5002C13.8316 16.5002 13.8309 16.5002 13.8301 16.5002C13.8294 16.5002 13.8287 16.5002 13.8279 16.5002C13.8272 16.5002 13.8264 16.5002 13.8257 16.5002C13.825 16.5002 13.8242 16.5002 13.8235 16.5002C13.8228 16.5002 13.822 16.5002 13.8213 16.5002C13.8206 16.5002 13.8198 16.5002 13.8191 16.5002C13.8184 16.5002 13.8177 16.5002 13.8169 16.5002C13.8162 16.5002 13.8155 16.5002 13.8148 16.5002C13.8141 16.5002 13.8134 16.5002 13.8126 16.5002C13.8119 16.5002 13.8112 16.5002 13.8105 16.5002C13.8098 16.5002 13.8091 16.5002 13.8084 16.5002C13.8077 16.5002 13.807 16.5002 13.8063 16.5002C13.8055 16.5002 13.8048 16.5002 13.8041 16.5002C13.8034 16.5002 13.8027 16.5002 13.802 16.5002C13.8014 16.5002 13.8007 16.5002 13.8 16.5002C13.7993 16.5002 13.7986 16.5002 13.7979 16.5002C13.7972 16.5002 13.7965 16.5002 13.7958 16.5002C13.7951 16.5002 13.7945 16.5002 13.7938 16.5002C13.7931 16.5002 13.7924 16.5002 13.7917 16.5002C13.791 16.5002 13.7904 16.5002 13.7897 16.5002C13.789 16.5002 13.7883 16.5002 13.7877 16.5002C13.787 16.5002 13.7863 16.5002 13.7857 16.5002C13.785 16.5002 13.7843 16.5002 13.7836 16.5002C13.783 16.5002 13.7823 16.5002 13.7817 16.5002C13.781 16.5002 13.7803 16.5002 13.7797 16.5002C13.779 16.5002 13.7784 16.5002 13.7777 16.5002C13.777 16.5002 13.7764 16.5002 13.7757 16.5002C13.7751 16.5002 13.7744 16.5002 13.7738 16.5002C13.7731 16.5002 13.7725 16.5002 13.7718 16.5002C13.7712 16.5002 13.7705 16.5002 13.7699 16.5002C13.7693 16.5002 13.7686 16.5002 13.768 16.5002C13.7673 16.5002 13.7667 16.5002 13.7661 16.5002C13.7654 16.5002 13.7648 16.5002 13.7642 16.5002C13.7635 16.5002 13.7629 16.5002 13.7623 16.5002C13.7616 16.5002 13.761 16.5002 13.7604 16.5002C13.7597 16.5002 13.7591 16.5002 13.7585 16.5002C13.7579 16.5002 13.7572 16.5002 13.7566 16.5002C13.756 16.5002 13.7554 16.5002 13.7548 16.5002C13.7542 16.5002 13.7535 16.5002 13.7529 16.5002C13.7523 16.5002 13.7517 16.5002 13.7511 16.5002C13.7505 16.5002 13.7499 16.5002 13.7493 16.5002C13.7486 16.5002 13.748 16.5002 13.7474 16.5002C13.7468 16.5002 13.7462 16.5002 13.7456 16.5002C13.745 16.5002 13.7444 16.5002 13.7438 16.5002C13.7432 16.5002 13.7426 16.5002 13.742 16.5002C13.7414 16.5002 13.7408 16.5002 13.7402 16.5002C13.7396 16.5002 13.7391 16.5002 13.7385 16.5002C13.7379 16.5002 13.7373 16.5002 13.7367 16.5002C13.7361 16.5002 13.7355 16.5002 13.7349 16.5002C13.7344 16.5002 13.7338 16.5002 13.7332 16.5002C13.7326 16.5002 13.732 16.5002 13.7314 16.5002C13.7309 16.5002 13.7303 16.5002 13.7297 16.5002C13.7291 16.5002 13.7286 16.5002 13.728 16.5002C13.7274 16.5002 13.7268 16.5002 13.7263 16.5002C13.7257 16.5002 13.7251 16.5002 13.7246 16.5002C13.724 16.5002 13.7234 16.5002 13.7229 16.5002C13.7223 16.5002 13.7217 16.5002 13.7212 16.5002C13.7206 16.5002 13.7201 16.5002 13.7195 16.5002C13.7189 16.5002 13.7184 16.5002 13.7178 16.5002C13.7173 16.5002 13.7167 16.5002 13.7162 16.5002C13.7156 16.5002 13.7151 16.5002 13.7145 16.5002C13.714 16.5002 13.7134 16.5002 13.7129 16.5002C13.7123 16.5002 13.7118 16.5002 13.7112 16.5002C13.7107 16.5002 13.7101 16.5002 13.7096 16.5002C13.709 16.5002 13.7085 16.5002 13.708 16.5002C13.7074 16.5002 13.7069 16.5002 13.7063 16.5002C13.7058 16.5002 13.7053 16.5002 13.7047 16.5002C13.7042 16.5002 13.7037 16.5002 13.7031 16.5002C13.7026 16.5002 13.7021 16.5002 13.7015 16.5002C13.701 16.5002 13.7005 16.5002 13.7 16.5002C13.6994 16.5002 13.6989 16.5002 13.6984 16.5002C13.6979 16.5002 13.6973 16.5002 13.6968 16.5002C13.6963 16.5002 13.6958 16.5002 13.6953 16.5002C13.6947 16.5002 13.6942 16.5002 13.6937 16.5002C13.6932 16.5002 13.6927 16.5002 13.6922 16.5002C13.6916 16.5002 13.6911 16.5002 13.6906 16.5002C13.6901 16.5002 13.6896 16.5002 13.6891 16.5002C13.6886 16.5002 13.6881 16.5002 13.6876 16.5002C13.6871 16.5002 13.6866 16.5002 13.686 16.5002C13.6855 16.5002 13.685 16.5002 13.6845 16.5002C13.684 16.5002 13.6835 16.5002 13.683 16.5002C13.6825 16.5002 13.682 16.5002 13.6815 16.5002C13.681 16.5002 13.6805 16.5002 13.6801 16.5002C13.6796 16.5002 13.6791 16.5002 13.6786 16.5002C13.6781 16.5002 13.6776 16.5002 13.6771 16.5002C13.6766 16.5002 13.6761 16.5002 13.6756 16.5002C13.6751 16.5002 13.6747 16.5002 13.6742 16.5002C13.6737 16.5002 13.6732 16.5002 13.6727 16.5002C13.6722 16.5002 13.6718 16.5002 13.6713 16.5002C13.6708 16.5002 13.6703 16.5002 13.6698 16.5002C13.6694 16.5002 13.6689 16.5002 13.6684 16.5002C13.6679 16.5002 13.6675 16.5002 13.667 16.5002C13.6665 16.5002 13.666 16.5002 13.6656 16.5002C13.6651 16.5002 13.6646 16.5002 13.6641 16.5002C13.6637 16.5002 13.6632 16.5002 13.6627 16.5002C13.6623 16.5002 13.6618 16.5002 13.6613 16.5002C13.6609 16.5002 13.6604 16.5002 13.66 16.5002C13.6595 16.5002 13.659 16.5002 13.6586 16.5002C13.6581 16.5002 13.6576 16.5002 13.6572 16.5002C13.6567 16.5002 13.6563 16.5002 13.6558 16.5002C13.6554 16.5002 13.6549 16.5002 13.6544 16.5002C13.654 16.5002 13.6535 16.5002 13.6531 16.5002C13.6526 16.5002 13.6522 16.5002 13.6517 16.5002C13.6513 16.5002 13.6508 16.5002 13.6504 16.5002C13.6499 16.5002 13.6495 16.5002 13.649 16.5002C13.6486 16.5002 13.6481 16.5002 13.6477 16.5002C13.6473 16.5002 13.6468 16.5002 13.6464 16.5002C13.6459 16.5002 13.6455 16.5002 13.645 16.5002C13.6446 16.5002 13.6442 16.5002 13.6437 16.5002C13.6433 16.5002 13.6429 16.5002 13.6424 16.5002C13.642 16.5002 13.6415 16.5002 13.6411 16.5002C13.6407 16.5002 13.6402 16.5002 13.6398 16.5002C13.6394 16.5002 13.6389 16.5002 13.6385 16.5002C13.6381 16.5002 13.6377 16.5002 13.6372 16.5002C13.6368 16.5002 13.6364 16.5002 13.6359 16.5002C13.6355 16.5002 13.6351 16.5002 13.6347 16.5002C13.6342 16.5002 13.6338 16.5002 13.6334 16.5002C13.633 16.5002 13.6325 16.5002 13.6321 16.5002C13.6317 16.5002 13.6313 16.5002 13.6309 16.5002C13.6304 16.5002 13.63 16.5002 13.6296 16.5002C13.6292 16.5002 13.6288 16.5002 13.6283 16.5002C13.6279 16.5002 13.6275 16.5002 13.6271 16.5002C13.6267 16.5002 13.6263 16.5002 13.6259 16.5002C13.6254 16.5002 13.625 16.5002 13.6246 16.5002C13.6242 16.5002 13.6238 16.5002 13.6234 16.5002C13.623 16.5002 13.6226 16.5002 13.6222 16.5002C13.6218 16.5002 13.6213 16.5002 13.6209 16.5002C13.6205 16.5002 13.6201 16.5002 13.6197 16.5002C13.6193 16.5002 13.6189 16.5002 13.6185 16.5002C13.6181 16.5002 13.6177 16.5002 13.6173 16.5002C13.6169 16.5002 13.6165 16.5002 13.6161 16.5002C13.6157 16.5002 13.6153 16.5002 13.6149 16.5002C13.6145 16.5002 13.6141 16.5002 13.6137 16.5002C13.6133 16.5002 13.6129 16.5002 13.6125 16.5002C13.6121 16.5002 13.6117 16.5002 13.6113 16.5002C13.6109 16.5002 13.6106 16.5002 13.6102 16.5002C13.6098 16.5002 13.6094 16.5002 13.609 16.5002C13.6086 16.5002 13.6082 16.5002 13.6078 16.5002C13.6074 16.5002 13.607 16.5002 13.6067 16.5002C13.6063 16.5002 13.6059 16.5002 13.6055 16.5002C13.6051 16.5002 13.6047 16.5002 13.6043 16.5002C13.604 16.5002 13.6036 16.5002 13.6032 16.5002C13.6028 16.5002 13.6024 16.5002 13.602 16.5002C13.6017 16.5002 13.6013 16.5002 13.6009 16.5002C13.6005 16.5002 13.6001 16.5002 13.5998 16.5002C13.5994 16.5002 13.599 16.5002 13.5986 16.5002C13.5982 16.5002 13.5979 16.5002 13.5975 16.5002C13.5971 16.5002 13.5967 16.5002 13.5964 16.5002C13.596 16.5002 13.5956 16.5002 13.5952 16.5002C13.5949 16.5002 13.5945 16.5002 13.5941 16.5002C13.5937 16.5002 13.5934 16.5002 13.593 16.5002C13.5926 16.5002 13.5923 16.5002 13.5919 16.5002C13.5915 16.5002 13.5911 16.5002 13.5908 16.5002C13.5904 16.5002 13.59 16.5002 13.5897 16.5002C13.5893 16.5002 13.5889 16.5002 13.5886 16.5002C13.5882 16.5002 13.5878 16.5002 13.5875 16.5002C13.5871 16.5002 13.5867 16.5002 13.5864 16.5002C13.586 16.5002 13.5856 16.5002 13.5853 16.5002C13.5849 16.5002 13.5846 16.5002 13.5842 16.5002C13.5838 16.5002 13.5835 16.5002 13.5831 16.5002C13.5828 16.5002 13.5824 16.5002 13.582 16.5002C13.5817 16.5002 13.5813 16.5002 13.581 16.5002C13.5806 16.5002 13.5802 16.5002 13.5799 16.5002C13.5795 16.5002 13.5792 16.5002 13.5788 16.5002C13.5785 16.5002 13.5781 16.5002 13.5777 16.5002C13.5774 16.5002 13.577 16.5002 13.5767 16.5002C13.5763 16.5002 13.576 16.5002 13.5756 16.5002C13.5753 16.5002 13.5749 16.5002 13.5746 16.5002C13.5742 16.5002 13.5738 16.5002 13.5735 16.5002C13.5731 16.5002 13.5728 16.5002 13.5724 16.5002C13.5721 16.5002 13.5717 16.5002 13.5714 16.5002C13.571 16.5002 13.5707 16.5002 13.5703 16.5002C13.57 16.5002 13.5696 16.5002 13.5693 16.5002C13.569 16.5002 13.5686 16.5002 13.5683 16.5002C13.5679 16.5002 13.5676 16.5002 13.5672 16.5002C13.5669 16.5002 13.5665 16.5002 13.5662 16.5002C13.5658 16.5002 13.5655 16.5002 13.5651 16.5002C13.5648 16.5002 13.5645 16.5002 13.5641 16.5002C13.5638 16.5002 13.5634 16.5002 13.5631 16.5002C13.5627 16.5002 13.5624 16.5002 13.5621 16.5002C13.5617 16.5002 13.5614 16.5002 13.561 16.5002C13.5607 16.5002 13.5604 16.5002 13.56 16.5002C13.5597 16.5002 13.5593 16.5002 13.559 16.5002C13.5587 16.5002 13.5583 16.5002 13.558 16.5002C13.5576 16.5002 13.5573 16.5002 13.557 16.5002C13.5566 16.5002 13.5563 16.5002 13.5559 16.5002C13.5556 16.5002 13.5553 16.5002 13.5549 16.5002C13.5546 16.5002 13.5543 16.5002 13.5539 16.5002C13.5536 16.5002 13.5532 16.5002 13.5529 16.5002C13.5526 16.5002 13.5522 16.5002 13.5519 16.5002C13.5516 16.5002 13.5512 16.5002 13.5509 16.5002C13.5506 16.5002 13.5502 16.5002 13.5499 16.5002C13.5496 16.5002 13.5492 16.5002 13.5489 16.5002C13.5486 16.5002 13.5482 16.5002 13.5479 16.5002C13.5476 16.5002 13.5472 16.5002 13.5469 16.5002C13.5466 16.5002 13.5462 16.5002 13.5459 16.5002C13.5456 16.5002 13.5452 16.5002 13.5449 16.5002C13.5446 16.5002 13.5443 16.5002 13.5439 16.5002C13.5436 16.5002 13.5433 16.5002 13.5429 16.5002C13.5426 16.5002 13.5423 16.5002 13.5419 16.5002C13.5416 16.5002 13.5413 16.5002 13.5409 16.5002C13.5406 16.5002 13.5403 16.5002 13.54 16.5002C13.5396 16.5002 13.5393 16.5002 13.539 16.5002C13.5386 16.5002 13.5383 16.5002 13.538 16.5002C13.5377 16.5002 13.5373 16.5002 13.537 16.5002C13.5367 16.5002 13.5364 16.5002 13.536 16.5002C13.5357 16.5002 13.5354 16.5002 13.535 16.5002C13.5347 16.5002 13.5344 16.5002 13.5341 16.5002C13.5337 16.5002 13.5334 16.5002 13.5331 16.5002C13.5328 16.5002 13.5324 16.5002 13.5321 16.5002C13.5318 16.5002 13.5315 16.5002 13.5311 16.5002C13.5308 16.5002 13.5305 16.5002 13.5302 16.5002C13.5298 16.5002 13.5295 16.5002 13.5292 16.5002C13.5288 16.5002 13.5285 16.5002 13.5282 16.5002C13.5279 16.5002 13.5275 16.5002 13.5272 16.5002C13.5269 16.5002 13.5266 16.5002 13.5263 16.5002C13.5259 16.5002 13.5256 16.5002 13.5253 16.5002C13.525 16.5002 13.5246 16.5002 13.5243 16.5002C13.524 16.5002 13.5237 16.5002 13.5233 16.5002C13.523 16.5002 13.5227 16.5002 13.5224 16.5002C13.522 16.5002 13.5217 16.5002 13.5214 16.5002C13.5211 16.5002 13.5207 16.5002 13.5204 16.5002C13.5201 16.5002 13.5198 16.5002 13.5194 16.5002C13.5191 16.5002 13.5188 16.5002 13.5185 16.5002C13.5181 16.5002 13.5178 16.5002 13.5175 16.5002C13.5172 16.5002 13.5169 16.5002 13.5165 16.5002C13.5162 16.5002 13.5159 16.5002 13.5156 16.5002C13.5152 16.5002 13.5149 16.5002 13.5146 16.5002C13.5143 16.5002 13.5139 16.5002 13.5136 16.5002C13.5133 16.5002 13.513 16.5002 13.5126 16.5002C13.5123 16.5002 13.512 16.5002 13.5117 16.5002C13.5114 16.5002 13.511 16.5002 13.5107 16.5002C13.5104 16.5002 13.5101 16.5002 13.5097 16.5002C13.5094 16.5002 13.5091 16.5002 13.5088 16.5002C13.5084 16.5002 13.5081 16.5002 13.5078 16.5002C13.5075 16.5002 13.5071 16.5002 13.5068 16.5002C13.5065 16.5002 13.5062 16.5002 13.5058 16.5002C13.5055 16.5002 13.5052 16.5002 13.5049 16.5002C13.5045 16.5002 13.5042 16.5002 13.5039 16.5002C13.5036 16.5002 13.5033 16.5002 13.5029 16.5002C13.5026 16.5002 13.5023 16.5002 13.502 16.5002C13.5016 16.5002 13.5013 16.5002 13.501 16.5002C13.5007 16.5002 13.5003 16.5002 13.5 16.5002V17.5002C13.5003 17.5002 13.5007 17.5002 13.501 17.5002C13.5013 17.5002 13.5016 17.5002 13.502 17.5002C13.5023 17.5002 13.5026 17.5002 13.5029 17.5002C13.5033 17.5002 13.5036 17.5002 13.5039 17.5002C13.5042 17.5002 13.5045 17.5002 13.5049 17.5002C13.5052 17.5002 13.5055 17.5002 13.5058 17.5002C13.5062 17.5002 13.5065 17.5002 13.5068 17.5002C13.5071 17.5002 13.5075 17.5002 13.5078 17.5002C13.5081 17.5002 13.5084 17.5002 13.5088 17.5002C13.5091 17.5002 13.5094 17.5002 13.5097 17.5002C13.5101 17.5002 13.5104 17.5002 13.5107 17.5002C13.511 17.5002 13.5114 17.5002 13.5117 17.5002C13.512 17.5002 13.5123 17.5002 13.5126 17.5002C13.513 17.5002 13.5133 17.5002 13.5136 17.5002C13.5139 17.5002 13.5143 17.5002 13.5146 17.5002C13.5149 17.5002 13.5152 17.5002 13.5156 17.5002C13.5159 17.5002 13.5162 17.5002 13.5165 17.5002C13.5169 17.5002 13.5172 17.5002 13.5175 17.5002C13.5178 17.5002 13.5181 17.5002 13.5185 17.5002C13.5188 17.5002 13.5191 17.5002 13.5194 17.5002C13.5198 17.5002 13.5201 17.5002 13.5204 17.5002C13.5207 17.5002 13.5211 17.5002 13.5214 17.5002C13.5217 17.5002 13.522 17.5002 13.5224 17.5002C13.5227 17.5002 13.523 17.5002 13.5233 17.5002C13.5237 17.5002 13.524 17.5002 13.5243 17.5002C13.5246 17.5002 13.525 17.5002 13.5253 17.5002C13.5256 17.5002 13.5259 17.5002 13.5263 17.5002C13.5266 17.5002 13.5269 17.5002 13.5272 17.5002C13.5275 17.5002 13.5279 17.5002 13.5282 17.5002C13.5285 17.5002 13.5288 17.5002 13.5292 17.5002C13.5295 17.5002 13.5298 17.5002 13.5302 17.5002C13.5305 17.5002 13.5308 17.5002 13.5311 17.5002C13.5315 17.5002 13.5318 17.5002 13.5321 17.5002C13.5324 17.5002 13.5328 17.5002 13.5331 17.5002C13.5334 17.5002 13.5337 17.5002 13.5341 17.5002C13.5344 17.5002 13.5347 17.5002 13.535 17.5002C13.5354 17.5002 13.5357 17.5002 13.536 17.5002C13.5364 17.5002 13.5367 17.5002 13.537 17.5002C13.5373 17.5002 13.5377 17.5002 13.538 17.5002C13.5383 17.5002 13.5386 17.5002 13.539 17.5002C13.5393 17.5002 13.5396 17.5002 13.54 17.5002C13.5403 17.5002 13.5406 17.5002 13.5409 17.5002C13.5413 17.5002 13.5416 17.5002 13.5419 17.5002C13.5423 17.5002 13.5426 17.5002 13.5429 17.5002C13.5433 17.5002 13.5436 17.5002 13.5439 17.5002C13.5443 17.5002 13.5446 17.5002 13.5449 17.5002C13.5452 17.5002 13.5456 17.5002 13.5459 17.5002C13.5462 17.5002 13.5466 17.5002 13.5469 17.5002C13.5472 17.5002 13.5476 17.5002 13.5479 17.5002C13.5482 17.5002 13.5486 17.5002 13.5489 17.5002C13.5492 17.5002 13.5496 17.5002 13.5499 17.5002C13.5502 17.5002 13.5506 17.5002 13.5509 17.5002C13.5512 17.5002 13.5516 17.5002 13.5519 17.5002C13.5522 17.5002 13.5526 17.5002 13.5529 17.5002C13.5532 17.5002 13.5536 17.5002 13.5539 17.5002C13.5543 17.5002 13.5546 17.5002 13.5549 17.5002C13.5553 17.5002 13.5556 17.5002 13.5559 17.5002C13.5563 17.5002 13.5566 17.5002 13.557 17.5002C13.5573 17.5002 13.5576 17.5002 13.558 17.5002C13.5583 17.5002 13.5587 17.5002 13.559 17.5002C13.5593 17.5002 13.5597 17.5002 13.56 17.5002C13.5604 17.5002 13.5607 17.5002 13.561 17.5002C13.5614 17.5002 13.5617 17.5002 13.5621 17.5002C13.5624 17.5002 13.5627 17.5002 13.5631 17.5002C13.5634 17.5002 13.5638 17.5002 13.5641 17.5002C13.5645 17.5002 13.5648 17.5002 13.5651 17.5002C13.5655 17.5002 13.5658 17.5002 13.5662 17.5002C13.5665 17.5002 13.5669 17.5002 13.5672 17.5002C13.5676 17.5002 13.5679 17.5002 13.5683 17.5002C13.5686 17.5002 13.569 17.5002 13.5693 17.5002C13.5696 17.5002 13.57 17.5002 13.5703 17.5002C13.5707 17.5002 13.571 17.5002 13.5714 17.5002C13.5717 17.5002 13.5721 17.5002 13.5724 17.5002C13.5728 17.5002 13.5731 17.5002 13.5735 17.5002C13.5738 17.5002 13.5742 17.5002 13.5746 17.5002C13.5749 17.5002 13.5753 17.5002 13.5756 17.5002C13.576 17.5002 13.5763 17.5002 13.5767 17.5002C13.577 17.5002 13.5774 17.5002 13.5777 17.5002C13.5781 17.5002 13.5785 17.5002 13.5788 17.5002C13.5792 17.5002 13.5795 17.5002 13.5799 17.5002C13.5802 17.5002 13.5806 17.5002 13.581 17.5002C13.5813 17.5002 13.5817 17.5002 13.582 17.5002C13.5824 17.5002 13.5828 17.5002 13.5831 17.5002C13.5835 17.5002 13.5838 17.5002 13.5842 17.5002C13.5846 17.5002 13.5849 17.5002 13.5853 17.5002C13.5856 17.5002 13.586 17.5002 13.5864 17.5002C13.5867 17.5002 13.5871 17.5002 13.5875 17.5002C13.5878 17.5002 13.5882 17.5002 13.5886 17.5002C13.5889 17.5002 13.5893 17.5002 13.5897 17.5002C13.59 17.5002 13.5904 17.5002 13.5908 17.5002C13.5911 17.5002 13.5915 17.5002 13.5919 17.5002C13.5923 17.5002 13.5926 17.5002 13.593 17.5002C13.5934 17.5002 13.5937 17.5002 13.5941 17.5002C13.5945 17.5002 13.5949 17.5002 13.5952 17.5002C13.5956 17.5002 13.596 17.5002 13.5964 17.5002C13.5967 17.5002 13.5971 17.5002 13.5975 17.5002C13.5979 17.5002 13.5982 17.5002 13.5986 17.5002C13.599 17.5002 13.5994 17.5002 13.5998 17.5002C13.6001 17.5002 13.6005 17.5002 13.6009 17.5002C13.6013 17.5002 13.6017 17.5002 13.602 17.5002C13.6024 17.5002 13.6028 17.5002 13.6032 17.5002C13.6036 17.5002 13.604 17.5002 13.6043 17.5002C13.6047 17.5002 13.6051 17.5002 13.6055 17.5002C13.6059 17.5002 13.6063 17.5002 13.6067 17.5002C13.607 17.5002 13.6074 17.5002 13.6078 17.5002C13.6082 17.5002 13.6086 17.5002 13.609 17.5002C13.6094 17.5002 13.6098 17.5002 13.6102 17.5002C13.6106 17.5002 13.6109 17.5002 13.6113 17.5002C13.6117 17.5002 13.6121 17.5002 13.6125 17.5002C13.6129 17.5002 13.6133 17.5002 13.6137 17.5002C13.6141 17.5002 13.6145 17.5002 13.6149 17.5002C13.6153 17.5002 13.6157 17.5002 13.6161 17.5002C13.6165 17.5002 13.6169 17.5002 13.6173 17.5002C13.6177 17.5002 13.6181 17.5002 13.6185 17.5002C13.6189 17.5002 13.6193 17.5002 13.6197 17.5002C13.6201 17.5002 13.6205 17.5002 13.6209 17.5002C13.6213 17.5002 13.6218 17.5002 13.6222 17.5002C13.6226 17.5002 13.623 17.5002 13.6234 17.5002C13.6238 17.5002 13.6242 17.5002 13.6246 17.5002C13.625 17.5002 13.6254 17.5002 13.6259 17.5002C13.6263 17.5002 13.6267 17.5002 13.6271 17.5002C13.6275 17.5002 13.6279 17.5002 13.6283 17.5002C13.6288 17.5002 13.6292 17.5002 13.6296 17.5002C13.63 17.5002 13.6304 17.5002 13.6309 17.5002C13.6313 17.5002 13.6317 17.5002 13.6321 17.5002C13.6325 17.5002 13.633 17.5002 13.6334 17.5002C13.6338 17.5002 13.6342 17.5002 13.6347 17.5002C13.6351 17.5002 13.6355 17.5002 13.6359 17.5002C13.6364 17.5002 13.6368 17.5002 13.6372 17.5002C13.6377 17.5002 13.6381 17.5002 13.6385 17.5002C13.6389 17.5002 13.6394 17.5002 13.6398 17.5002C13.6402 17.5002 13.6407 17.5002 13.6411 17.5002C13.6415 17.5002 13.642 17.5002 13.6424 17.5002C13.6429 17.5002 13.6433 17.5002 13.6437 17.5002C13.6442 17.5002 13.6446 17.5002 13.645 17.5002C13.6455 17.5002 13.6459 17.5002 13.6464 17.5002C13.6468 17.5002 13.6473 17.5002 13.6477 17.5002C13.6481 17.5002 13.6486 17.5002 13.649 17.5002C13.6495 17.5002 13.6499 17.5002 13.6504 17.5002C13.6508 17.5002 13.6513 17.5002 13.6517 17.5002C13.6522 17.5002 13.6526 17.5002 13.6531 17.5002C13.6535 17.5002 13.654 17.5002 13.6544 17.5002C13.6549 17.5002 13.6554 17.5002 13.6558 17.5002C13.6563 17.5002 13.6567 17.5002 13.6572 17.5002C13.6576 17.5002 13.6581 17.5002 13.6586 17.5002C13.659 17.5002 13.6595 17.5002 13.66 17.5002C13.6604 17.5002 13.6609 17.5002 13.6613 17.5002C13.6618 17.5002 13.6623 17.5002 13.6627 17.5002C13.6632 17.5002 13.6637 17.5002 13.6641 17.5002C13.6646 17.5002 13.6651 17.5002 13.6656 17.5002C13.666 17.5002 13.6665 17.5002 13.667 17.5002C13.6675 17.5002 13.6679 17.5002 13.6684 17.5002C13.6689 17.5002 13.6694 17.5002 13.6698 17.5002C13.6703 17.5002 13.6708 17.5002 13.6713 17.5002C13.6718 17.5002 13.6722 17.5002 13.6727 17.5002C13.6732 17.5002 13.6737 17.5002 13.6742 17.5002C13.6747 17.5002 13.6751 17.5002 13.6756 17.5002C13.6761 17.5002 13.6766 17.5002 13.6771 17.5002C13.6776 17.5002 13.6781 17.5002 13.6786 17.5002C13.6791 17.5002 13.6796 17.5002 13.6801 17.5002C13.6805 17.5002 13.681 17.5002 13.6815 17.5002C13.682 17.5002 13.6825 17.5002 13.683 17.5002C13.6835 17.5002 13.684 17.5002 13.6845 17.5002C13.685 17.5002 13.6855 17.5002 13.686 17.5002C13.6866 17.5002 13.6871 17.5002 13.6876 17.5002C13.6881 17.5002 13.6886 17.5002 13.6891 17.5002C13.6896 17.5002 13.6901 17.5002 13.6906 17.5002C13.6911 17.5002 13.6916 17.5002 13.6922 17.5002C13.6927 17.5002 13.6932 17.5002 13.6937 17.5002C13.6942 17.5002 13.6947 17.5002 13.6953 17.5002C13.6958 17.5002 13.6963 17.5002 13.6968 17.5002C13.6973 17.5002 13.6979 17.5002 13.6984 17.5002C13.6989 17.5002 13.6994 17.5002 13.7 17.5002C13.7005 17.5002 13.701 17.5002 13.7015 17.5002C13.7021 17.5002 13.7026 17.5002 13.7031 17.5002C13.7037 17.5002 13.7042 17.5002 13.7047 17.5002C13.7053 17.5002 13.7058 17.5002 13.7063 17.5002C13.7069 17.5002 13.7074 17.5002 13.708 17.5002C13.7085 17.5002 13.709 17.5002 13.7096 17.5002C13.7101 17.5002 13.7107 17.5002 13.7112 17.5002C13.7118 17.5002 13.7123 17.5002 13.7129 17.5002C13.7134 17.5002 13.714 17.5002 13.7145 17.5002C13.7151 17.5002 13.7156 17.5002 13.7162 17.5002C13.7167 17.5002 13.7173 17.5002 13.7178 17.5002C13.7184 17.5002 13.7189 17.5002 13.7195 17.5002C13.7201 17.5002 13.7206 17.5002 13.7212 17.5002C13.7217 17.5002 13.7223 17.5002 13.7229 17.5002C13.7234 17.5002 13.724 17.5002 13.7246 17.5002C13.7251 17.5002 13.7257 17.5002 13.7263 17.5002C13.7268 17.5002 13.7274 17.5002 13.728 17.5002C13.7286 17.5002 13.7291 17.5002 13.7297 17.5002C13.7303 17.5002 13.7309 17.5002 13.7314 17.5002C13.732 17.5002 13.7326 17.5002 13.7332 17.5002C13.7338 17.5002 13.7344 17.5002 13.7349 17.5002C13.7355 17.5002 13.7361 17.5002 13.7367 17.5002C13.7373 17.5002 13.7379 17.5002 13.7385 17.5002C13.7391 17.5002 13.7396 17.5002 13.7402 17.5002C13.7408 17.5002 13.7414 17.5002 13.742 17.5002C13.7426 17.5002 13.7432 17.5002 13.7438 17.5002C13.7444 17.5002 13.745 17.5002 13.7456 17.5002C13.7462 17.5002 13.7468 17.5002 13.7474 17.5002C13.748 17.5002 13.7486 17.5002 13.7493 17.5002C13.7499 17.5002 13.7505 17.5002 13.7511 17.5002C13.7517 17.5002 13.7523 17.5002 13.7529 17.5002C13.7535 17.5002 13.7542 17.5002 13.7548 17.5002C13.7554 17.5002 13.756 17.5002 13.7566 17.5002C13.7572 17.5002 13.7579 17.5002 13.7585 17.5002C13.7591 17.5002 13.7597 17.5002 13.7604 17.5002C13.761 17.5002 13.7616 17.5002 13.7623 17.5002C13.7629 17.5002 13.7635 17.5002 13.7642 17.5002C13.7648 17.5002 13.7654 17.5002 13.7661 17.5002C13.7667 17.5002 13.7673 17.5002 13.768 17.5002C13.7686 17.5002 13.7693 17.5002 13.7699 17.5002C13.7705 17.5002 13.7712 17.5002 13.7718 17.5002C13.7725 17.5002 13.7731 17.5002 13.7738 17.5002C13.7744 17.5002 13.7751 17.5002 13.7757 17.5002C13.7764 17.5002 13.777 17.5002 13.7777 17.5002C13.7784 17.5002 13.779 17.5002 13.7797 17.5002C13.7803 17.5002 13.781 17.5002 13.7817 17.5002C13.7823 17.5002 13.783 17.5002 13.7836 17.5002C13.7843 17.5002 13.785 17.5002 13.7857 17.5002C13.7863 17.5002 13.787 17.5002 13.7877 17.5002C13.7883 17.5002 13.789 17.5002 13.7897 17.5002C13.7904 17.5002 13.791 17.5002 13.7917 17.5002C13.7924 17.5002 13.7931 17.5002 13.7938 17.5002C13.7945 17.5002 13.7951 17.5002 13.7958 17.5002C13.7965 17.5002 13.7972 17.5002 13.7979 17.5002C13.7986 17.5002 13.7993 17.5002 13.8 17.5002C13.8007 17.5002 13.8014 17.5002 13.802 17.5002C13.8027 17.5002 13.8034 17.5002 13.8041 17.5002C13.8048 17.5002 13.8055 17.5002 13.8063 17.5002C13.807 17.5002 13.8077 17.5002 13.8084 17.5002C13.8091 17.5002 13.8098 17.5002 13.8105 17.5002C13.8112 17.5002 13.8119 17.5002 13.8126 17.5002C13.8134 17.5002 13.8141 17.5002 13.8148 17.5002C13.8155 17.5002 13.8162 17.5002 13.8169 17.5002C13.8177 17.5002 13.8184 17.5002 13.8191 17.5002C13.8198 17.5002 13.8206 17.5002 13.8213 17.5002C13.822 17.5002 13.8228 17.5002 13.8235 17.5002C13.8242 17.5002 13.825 17.5002 13.8257 17.5002C13.8264 17.5002 13.8272 17.5002 13.8279 17.5002C13.8287 17.5002 13.8294 17.5002 13.8301 17.5002C13.8309 17.5002 13.8316 17.5002 13.8324 17.5002C13.8331 17.5002 13.8339 17.5002 13.8346 17.5002C13.8354 17.5002 13.8361 17.5002 13.8369 17.5002C13.8376 17.5002 13.8384 17.5002 13.8392 17.5002C13.8399 17.5002 13.8407 17.5002 13.8414 17.5002C13.8422 17.5002 13.843 17.5002 13.8437 17.5002C13.8445 17.5002 13.8453 17.5002 13.846 17.5002C13.8468 17.5002 13.8476 17.5002 13.8484 17.5002C13.8491 17.5002 13.8499 17.5002 13.8507 17.5002C13.8515 17.5002 13.8522 17.5002 13.853 17.5002C13.8538 17.5002 13.8546 17.5002 13.8554 17.5002C13.8562 17.5002 13.8569 17.5002 13.8577 17.5002C13.8585 17.5002 13.8593 17.5002 13.8601 17.5002C13.8609 17.5002 13.8617 17.5002 13.8625 17.5002C13.8633 17.5002 13.8641 17.5002 13.8649 17.5002C13.8657 17.5002 13.8665 17.5002 13.8673 17.5002C13.8681 17.5002 13.8689 17.5002 13.8697 17.5002C13.8705 17.5002 13.8714 17.5002 13.8722 17.5002C13.873 17.5002 13.8738 17.5002 13.8746 17.5002C13.8754 17.5002 13.8762 17.5002 13.8771 17.5002C13.8779 17.5002 13.8787 17.5002 13.8795 17.5002C13.8804 17.5002 13.8812 17.5002 13.882 17.5002C13.8829 17.5002 13.8837 17.5002 13.8845 17.5002C13.8854 17.5002 13.8862 17.5002 13.887 17.5002C13.8879 17.5002 13.8887 17.5002 13.8895 17.5002C13.8904 17.5002 13.8912 17.5002 13.8921 17.5002C13.8929 17.5002 13.8938 17.5002 13.8946 17.5002C13.8955 17.5002 13.8963 17.5002 13.8972 17.5002C13.898 17.5002 13.8989 17.5002 13.8997 17.5002C13.9006 17.5002 13.9015 17.5002 13.9023 17.5002C13.9032 17.5002 13.9041 17.5002 13.9049 17.5002C13.9058 17.5002 13.9067 17.5002 13.9075 17.5002C13.9084 17.5002 13.9093 17.5002 13.9101 17.5002C13.911 17.5002 13.9119 17.5002 13.9128 17.5002C13.9137 17.5002 13.9145 17.5002 13.9154 17.5002C13.9163 17.5002 13.9172 17.5002 13.9181 17.5002C13.919 17.5002 13.9199 17.5002 13.9208 17.5002C13.9216 17.5002 13.9225 17.5002 13.9234 17.5002C13.9243 17.5002 13.9252 17.5002 13.9261 17.5002C13.927 17.5002 13.9279 17.5002 13.9288 17.5002C13.9298 17.5002 13.9307 17.5002 13.9316 17.5002C13.9325 17.5002 13.9334 17.5002 13.9343 17.5002C13.9352 17.5002 13.9361 17.5002 13.9371 17.5002C13.938 17.5002 13.9389 17.5002 13.9398 17.5002C13.9407 17.5002 13.9417 17.5002 13.9426 17.5002C13.9435 17.5002 13.9445 17.5002 13.9454 17.5002C13.9463 17.5002 13.9473 17.5002 13.9482 17.5002C13.9491 17.5002 13.9501 17.5002 13.951 17.5002C13.9519 17.5002 13.9529 17.5002 13.9538 17.5002C13.9548 17.5002 13.9557 17.5002 13.9567 17.5002C13.9576 17.5002 13.9586 17.5002 13.9595 17.5002C13.9605 17.5002 13.9614 17.5002 13.9624 17.5002C13.9634 17.5002 13.9643 17.5002 13.9653 17.5002C13.9663 17.5002 13.9672 17.5002 13.9682 17.5002C13.9692 17.5002 13.9701 17.5002 13.9711 17.5002C13.9721 17.5002 13.973 17.5002 13.974 17.5002C13.975 17.5002 13.976 17.5002 13.977 17.5002C13.9779 17.5002 13.9789 17.5002 13.9799 17.5002C13.9809 17.5002 13.9819 17.5002 13.9829 17.5002C13.9839 17.5002 13.9849 17.5002 13.9859 17.5002C13.9869 17.5002 13.9879 17.5002 13.9889 17.5002C13.9899 17.5002 13.9909 17.5002 13.9919 17.5002C13.9929 17.5002 13.9939 17.5002 13.9949 17.5002C13.9959 17.5002 13.9969 17.5002 13.9979 17.5002C13.999 17.5002 14 17.5002 14.001 17.5002C14.002 17.5002 14.003 17.5002 14.0041 17.5002C14.0051 17.5002 14.0061 17.5002 14.0071 17.5002C14.0082 17.5002 14.0092 17.5002 14.0102 17.5002C14.0113 17.5002 14.0123 17.5002 14.0133 17.5002C14.0144 17.5002 14.0154 17.5002 14.0165 17.5002C14.0175 17.5002 14.0186 17.5002 14.0196 17.5002C14.0207 17.5002 14.0217 17.5002 14.0228 17.5002C14.0238 17.5002 14.0249 17.5002 14.0259 17.5002C14.027 17.5002 14.028 17.5002 14.0291 17.5002C14.0302 17.5002 14.0312 17.5002 14.0323 17.5002C14.0334 17.5002 14.0344 17.5002 14.0355 17.5002C14.0366 17.5002 14.0377 17.5002 14.0387 17.5002C14.0398 17.5002 14.0409 17.5002 14.042 17.5002C14.0431 17.5002 14.0442 17.5002 14.0452 17.5002C14.0463 17.5002 14.0474 17.5002 14.0485 17.5002C14.0496 17.5002 14.0507 17.5002 14.0518 17.5002C14.0529 17.5002 14.054 17.5002 14.0551 17.5002C14.0562 17.5002 14.0573 17.5002 14.0584 17.5002C14.0595 17.5002 14.0607 17.5002 14.0618 17.5002C14.0629 17.5002 14.064 17.5002 14.0651 17.5002C14.0662 17.5002 14.0674 17.5002 14.0685 17.5002C14.0696 17.5002 14.0707 17.5002 14.0719 17.5002C14.073 17.5002 14.0741 17.5002 14.0753 17.5002C14.0764 17.5002 14.0775 17.5002 14.0787 17.5002C14.0798 17.5002 14.0809 17.5002 14.0821 17.5002C14.0832 17.5002 14.0844 17.5002 14.0855 17.5002C14.0867 17.5002 14.0878 17.5002 14.089 17.5002C14.0901 17.5002 14.0913 17.5002 14.0925 17.5002C14.0936 17.5002 14.0948 17.5002 14.0959 17.5002C14.0971 17.5002 14.0983 17.5002 14.0994 17.5002C14.1006 17.5002 14.1018 17.5002 14.103 17.5002C14.1041 17.5002 14.1053 17.5002 14.1065 17.5002C14.1077 17.5002 14.1089 17.5002 14.1101 17.5002C14.1112 17.5002 14.1124 17.5002 14.1136 17.5002C14.1148 17.5002 14.116 17.5002 14.1172 17.5002C14.1184 17.5002 14.1196 17.5002 14.1208 17.5002C14.122 17.5002 14.1232 17.5002 14.1244 17.5002C14.1256 17.5002 14.1268 17.5002 14.1281 17.5002C14.1293 17.5002 14.1305 17.5002 14.1317 17.5002C14.1329 17.5002 14.1341 17.5002 14.1354 17.5002C14.1366 17.5002 14.1378 17.5002 14.139 17.5002C14.1403 17.5002 14.1415 17.5002 14.1427 17.5002C14.144 17.5002 14.1452 17.5002 14.1465 17.5002C14.1477 17.5002 14.1489 17.5002 14.1502 17.5002C14.1514 17.5002 14.1527 17.5002 14.1539 17.5002C14.1552 17.5002 14.1564 17.5002 14.1577 17.5002C14.159 17.5002 14.1602 17.5002 14.1615 17.5002C14.1627 17.5002 14.164 17.5002 14.1653 17.5002C14.1665 17.5002 14.1678 17.5002 14.1691 17.5002C14.1704 17.5002 14.1716 17.5002 14.1729 17.5002C14.1742 17.5002 14.1755 17.5002 14.1768 17.5002C14.178 17.5002 14.1793 17.5002 14.1806 17.5002C14.1819 17.5002 14.1832 17.5002 14.1845 17.5002C14.1858 17.5002 14.1871 17.5002 14.1884 17.5002C14.1897 17.5002 14.191 17.5002 14.1923 17.5002C14.1936 17.5002 14.1949 17.5002 14.1962 17.5002C14.1976 17.5002 14.1989 17.5002 14.2002 17.5002C14.2015 17.5002 14.2028 17.5002 14.2042 17.5002C14.2055 17.5002 14.2068 17.5002 14.2081 17.5002C14.2095 17.5002 14.2108 17.5002 14.2121 17.5002C14.2135 17.5002 14.2148 17.5002 14.2162 17.5002C14.2175 17.5002 14.2188 17.5002 14.2202 17.5002C14.2215 17.5002 14.2229 17.5002 14.2242 17.5002C14.2256 17.5002 14.2269 17.5002 14.2283 17.5002C14.2297 17.5002 14.231 17.5002 14.2324 17.5002C14.2338 17.5002 14.2351 17.5002 14.2365 17.5002C14.2379 17.5002 14.2392 17.5002 14.2406 17.5002C14.242 17.5002 14.2434 17.5002 14.2448 17.5002C14.2461 17.5002 14.2475 17.5002 14.2489 17.5002C14.2503 17.5002 14.2517 17.5002 14.2531 17.5002C14.2545 17.5002 14.2559 17.5002 14.2573 17.5002C14.2587 17.5002 14.2601 17.5002 14.2615 17.5002C14.2629 17.5002 14.2643 17.5002 14.2657 17.5002C14.2671 17.5002 14.2685 17.5002 14.27 17.5002C14.2714 17.5002 14.2728 17.5002 14.2742 17.5002C14.2757 17.5002 14.2771 17.5002 14.2785 17.5002C14.2799 17.5002 14.2814 17.5002 14.2828 17.5002C14.2842 17.5002 14.2857 17.5002 14.2871 17.5002C14.2886 17.5002 14.29 17.5002 14.2915 17.5002C14.2929 17.5002 14.2944 17.5002 14.2958 17.5002C14.2973 17.5002 14.2987 17.5002 14.3002 17.5002C14.3017 17.5002 14.3031 17.5002 14.3046 17.5002C14.3061 17.5002 14.3075 17.5002 14.309 17.5002C14.3105 17.5002 14.3119 17.5002 14.3134 17.5002C14.3149 17.5002 14.3164 17.5002 14.3179 17.5002C14.3194 17.5002 14.3208 17.5002 14.3223 17.5002C14.3238 17.5002 14.3253 17.5002 14.3268 17.5002C14.3283 17.5002 14.3298 17.5002 14.3313 17.5002C14.3328 17.5002 14.3343 17.5002 14.3358 17.5002C14.3374 17.5002 14.3389 17.5002 14.3404 17.5002C14.3419 17.5002 14.3434 17.5002 14.3449 17.5002C14.3465 17.5002 14.348 17.5002 14.3495 17.5002C14.351 17.5002 14.3526 17.5002 14.3541 17.5002C14.3556 17.5002 14.3572 17.5002 14.3587 17.5002C14.3603 17.5002 14.3618 17.5002 14.3634 17.5002C14.3649 17.5002 14.3665 17.5002 14.368 17.5002C14.3696 17.5002 14.3711 17.5002 14.3727 17.5002C14.3742 17.5002 14.3758 17.5002 14.3774 17.5002C14.3789 17.5002 14.3805 17.5002 14.3821 17.5002C14.3837 17.5002 14.3852 17.5002 14.3868 17.5002C14.3884 17.5002 14.39 17.5002 14.3916 17.5002C14.3931 17.5002 14.3947 17.5002 14.3963 17.5002C14.3979 17.5002 14.3995 17.5002 14.4011 17.5002C14.4027 17.5002 14.4043 17.5002 14.4059 17.5002C14.4075 17.5002 14.4091 17.5002 14.4107 17.5002C14.4124 17.5002 14.414 17.5002 14.4156 17.5002C14.4172 17.5002 14.4188 17.5002 14.4205 17.5002C14.4221 17.5002 14.4237 17.5002 14.4253 17.5002C14.427 17.5002 14.4286 17.5002 14.4302 17.5002C14.4319 17.5002 14.4335 17.5002 14.4352 17.5002C14.4368 17.5002 14.4385 17.5002 14.4401 17.5002C14.4418 17.5002 14.4434 17.5002 14.4451 17.5002C14.4467 17.5002 14.4484 17.5002 14.4501 17.5002C14.4517 17.5002 14.4534 17.5002 14.4551 17.5002C14.4567 17.5002 14.4584 17.5002 14.4601 17.5002C14.4618 17.5002 14.4634 17.5002 14.4651 17.5002C14.4668 17.5002 14.4685 17.5002 14.4702 17.5002C14.4719 17.5002 14.4736 17.5002 14.4753 17.5002C14.477 17.5002 14.4787 17.5002 14.4804 17.5002C14.4821 17.5002 14.4838 17.5002 14.4855 17.5002C14.4872 17.5002 14.4889 17.5002 14.4907 17.5002C14.4924 17.5002 14.4941 17.5002 14.4958 17.5002C14.4975 17.5002 14.4993 17.5002 14.501 17.5002C14.5027 17.5002 14.5045 17.5002 14.5062 17.5002C14.5079 17.5002 14.5097 17.5002 14.5114 17.5002C14.5132 17.5002 14.5149 17.5002 14.5167 17.5002C14.5184 17.5002 14.5202 17.5002 14.5219 17.5002C14.5237 17.5002 14.5255 17.5002 14.5272 17.5002C14.529 17.5002 14.5308 17.5002 14.5325 17.5002C14.5343 17.5002 14.5361 17.5002 14.5379 17.5002C14.5396 17.5002 14.5414 17.5002 14.5432 17.5002C14.545 17.5002 14.5468 17.5002 14.5486 17.5002C14.5504 17.5002 14.5522 17.5002 14.554 17.5002C14.5558 17.5002 14.5576 17.5002 14.5594 17.5002C14.5612 17.5002 14.563 17.5002 14.5648 17.5002C14.5666 17.5002 14.5684 17.5002 14.5703 17.5002C14.5721 17.5002 14.5739 17.5002 14.5757 17.5002C14.5776 17.5002 14.5794 17.5002 14.5812 17.5002C14.5831 17.5002 14.5849 17.5002 14.5868 17.5002C14.5886 17.5002 14.5904 17.5002 14.5923 17.5002C14.5941 17.5002 14.596 17.5002 14.5979 17.5002C14.5997 17.5002 14.6016 17.5002 14.6034 17.5002C14.6053 17.5002 14.6072 17.5002 14.609 17.5002C14.6109 17.5002 14.6128 17.5002 14.6147 17.5002C14.6165 17.5002 14.6184 17.5002 14.6203 17.5002C14.6222 17.5002 14.6241 17.5002 14.626 17.5002C14.6279 17.5002 14.6298 17.5002 14.6317 17.5002C14.6336 17.5002 14.6355 17.5002 14.6374 17.5002C14.6393 17.5002 14.6412 17.5002 14.6431 17.5002C14.645 17.5002 14.6469 17.5002 14.6488 17.5002C14.6508 17.5002 14.6527 17.5002 14.6546 17.5002C14.6565 17.5002 14.6585 17.5002 14.6604 17.5002C14.6623 17.5002 14.6643 17.5002 14.6662 17.5002C14.6682 17.5002 14.6701 17.5002 14.6721 17.5002C14.674 17.5002 14.676 17.5002 14.6779 17.5002C14.6799 17.5002 14.6818 17.5002 14.6838 17.5002C14.6858 17.5002 14.6877 17.5002 14.6897 17.5002C14.6917 17.5002 14.6937 17.5002 14.6956 17.5002C14.6976 17.5002 14.6996 17.5002 14.7016 17.5002C14.7036 17.5002 14.7056 17.5002 14.7076 17.5002C14.7096 17.5002 14.7116 17.5002 14.7136 17.5002C14.7156 17.5002 14.7176 17.5002 14.7196 17.5002C14.7216 17.5002 14.7236 17.5002 14.7256 17.5002C14.7276 17.5002 14.7297 17.5002 14.7317 17.5002C14.7337 17.5002 14.7357 17.5002 14.7378 17.5002C14.7398 17.5002 14.7418 17.5002 14.7439 17.5002C14.7459 17.5002 14.7479 17.5002 14.75 17.5002C14.752 17.5002 14.7541 17.5002 14.7561 17.5002C14.7582 17.5002 14.7603 17.5002 14.7623 17.5002C14.7644 17.5002 14.7664 17.5002 14.7685 17.5002C14.7706 17.5002 14.7727 17.5002 14.7747 17.5002C14.7768 17.5002 14.7789 17.5002 14.781 17.5002C14.7831 17.5002 14.7851 17.5002 14.7872 17.5002C14.7893 17.5002 14.7914 17.5002 14.7935 17.5002C14.7956 17.5002 14.7977 17.5002 14.7998 17.5002C14.8019 17.5002 14.804 17.5002 14.8062 17.5002C14.8083 17.5002 14.8104 17.5002 14.8125 17.5002C14.8146 17.5002 14.8168 17.5002 14.8189 17.5002C14.821 17.5002 14.8232 17.5002 14.8253 17.5002C14.8274 17.5002 14.8296 17.5002 14.8317 17.5002C14.8339 17.5002 14.836 17.5002 14.8382 17.5002C14.8403 17.5002 14.8425 17.5002 14.8446 17.5002C14.8468 17.5002 14.849 17.5002 14.8511 17.5002C14.8533 17.5002 14.8555 17.5002 14.8577 17.5002C14.8598 17.5002 14.862 17.5002 14.8642 17.5002C14.8664 17.5002 14.8686 17.5002 14.8708 17.5002C14.8729 17.5002 14.8751 17.5002 14.8773 17.5002C14.8795 17.5002 14.8817 17.5002 14.884 17.5002C14.8862 17.5002 14.8884 17.5002 14.8906 17.5002C14.8928 17.5002 14.895 17.5002 14.8973 17.5002C14.8995 17.5002 14.9017 17.5002 14.9039 17.5002C14.9062 17.5002 14.9084 17.5002 14.9106 17.5002C14.9129 17.5002 14.9151 17.5002 14.9174 17.5002C14.9196 17.5002 14.9219 17.5002 14.9241 17.5002C14.9264 17.5002 14.9286 17.5002 14.9309 17.5002C14.9332 17.5002 14.9354 17.5002 14.9377 17.5002C14.94 17.5002 14.9422 17.5002 14.9445 17.5002C14.9468 17.5002 14.9491 17.5002 14.9514 17.5002C14.9537 17.5002 14.956 17.5002 14.9583 17.5002C14.9605 17.5002 14.9628 17.5002 14.9651 17.5002C14.9675 17.5002 14.9698 17.5002 14.9721 17.5002C14.9744 17.5002 14.9767 17.5002 14.979 17.5002C14.9813 17.5002 14.9837 17.5002 14.986 17.5002C14.9883 17.5002 14.9906 17.5002 14.993 17.5002C14.9953 17.5002 14.9977 17.5002 15 17.5002V16.5002Z" fill="#333333"/>
</svg>
