<svg width="24" height="24" viewBox="0 0 24 24" fill="none" xmlns="http://www.w3.org/2000/svg">
<path d="M3 3L21 21" stroke="#BBBBBB" stroke-linecap="round" stroke-linejoin="round"/>
<path d="M10.5009 10.677C10.164 11.0585 9.98519 11.5541 10.001 12.0629C10.0167 12.5716 10.2259 13.0552 10.5858 13.4151C10.9457 13.7751 11.4293 13.9842 11.9381 14C12.4468 14.0157 12.9424 13.8369 13.3239 13.5" stroke="#BBBBBB" stroke-linecap="round" stroke-linejoin="round"/>
<path d="M7.362 7.56104C5.68 8.74004 4.279 10.42 3 12C4.889 14.991 8.282 18 12 18C13.55 18 15.043 17.477 16.395 16.65" stroke="#BBBBBB" stroke-linecap="round" stroke-linejoin="round"/>
<path d="M12 6C16.008 6 18.701 9.158 21 12C20.6705 12.5208 20.3105 13.0216 19.922 13.5" stroke="#BBBBBB" stroke-linecap="round" stroke-linejoin="round"/>
</svg>
